<?xml version="1.0" encoding="utf-8"?>
<!-- Generator: Adobe Illustrator 27.5.0, SVG Export Plug-In . SVG Version: 6.00 Build 0)  -->
<svg version="1.1" xmlns="http://www.w3.org/2000/svg" xmlns:xlink="http://www.w3.org/1999/xlink" x="0px" y="0px"
	 viewBox="0 0 500 500" style="enable-background:new 0 0 500 500;" xml:space="preserve">
<g id="BACKGROUND">
	<rect x="-0.001" style="opacity:0.5;fill:#EAF4F9;" width="500.001" height="500"/>
</g>
<g id="OBJECTS">
	<g>
		<g>
			
				<text transform="matrix(1 0 0 1 103.6954 369.9725)" style="fill:#101C42; font-family:'Montserrat-Bold'; font-size:40.161px; letter-spacing:4;">nerd logo</text>
			<g>
				
					<text transform="matrix(1 0 0 1 172.0108 389.3836)" style="fill:#101C42; font-family:'Montserrat-Regular'; font-size:9px; letter-spacing:3;">tagline goes here</text>
			</g>
		</g>
		<g>
			<g>
				<g>
					<g>
						<g>
							<g>
								<polygon style="fill:#101C42;" points="138.669,237.51 112.234,237.51 112.234,242.553 136.581,242.553 149.003,254.971 
									207.017,254.971 207.017,249.928 151.091,249.928 								"/>
								<path style="fill:#101C42;" d="M116.761,239.796l-5.213,9.026h-10.424l-5.209-9.026l5.209-9.027h10.424L116.761,239.796z"/>
							</g>
							<g>
								<polygon style="fill:#101C42;" points="138.669,305.896 112.234,305.896 112.234,300.852 136.581,300.852 149.003,288.434 
									207.017,288.434 207.017,293.477 151.091,293.477 								"/>
								<path style="fill:#101C42;" d="M111.548,312.636h-10.424l-5.209-9.027l5.209-9.026h10.424l5.213,9.026L111.548,312.636z
									 M103.455,308.603h5.766l2.881-4.995l-2.881-4.993h-5.766l-2.885,4.993L103.455,308.603z"/>
							</g>
							<g>
								<rect x="123.039" y="270.823" style="fill:#101C42;" width="44.416" height="4.692"/>
								<path style="fill:#FF8E27;" d="M106.095,273.169l4.85-8.398h9.699l4.854,8.398l-4.854,8.401h-9.699L106.095,273.169z"/>
							</g>
						</g>
						<g>
							<g>
								<polygon style="fill:#101C42;" points="361.326,237.51 387.766,237.51 387.766,242.553 363.416,242.553 350.996,254.971 
									292.982,254.971 292.982,249.928 348.906,249.928 								"/>
								<path style="fill:#101C42;" d="M388.451,230.768h10.424l5.209,9.027l-5.209,9.026h-10.424l-5.213-9.026L388.451,230.768z"/>
							</g>
							<g>
								<polygon style="fill:#101C42;" points="361.326,305.896 387.766,305.896 387.766,300.852 363.416,300.852 350.996,288.434 
									292.982,288.434 292.982,293.477 348.906,293.477 								"/>
								<path style="fill:#101C42;" d="M383.238,303.608l5.213-9.026h10.424l5.209,9.026l-5.209,9.027h-10.424L383.238,303.608z
									 M399.428,303.608l-2.887-4.993h-5.764l-2.881,4.993l2.881,4.995h5.764L399.428,303.608z"/>
							</g>
							<g>
								<rect x="332.543" y="270.823" style="fill:#101C42;" width="44.416" height="4.692"/>
								<path style="fill:#FF8E27;" d="M389.055,281.57h-9.703l-4.85-8.401l4.85-8.398h9.703l4.848,8.398L389.055,281.57z"/>
							</g>
						</g>
					</g>
					<path style="fill:none;stroke:#101C42;stroke-width:8;stroke-miterlimit:10;" d="M211.4,273.518
						c9.238-33.176,63.235-34.287,77.2-5.15"/>
					<g>
						<g>
							<polygon style="fill:#101C42;" points="282.172,319.476 256.23,274.552 282.172,229.629 334.043,229.629 359.98,274.552 
								334.043,319.476 							"/>
							<polygon style="fill:#00BBDD;" points="287.223,310.719 266.344,274.55 287.223,238.384 328.984,238.384 349.867,274.55 
								328.984,310.719 							"/>
							<g>
								
									<line style="fill:none;stroke:#FFFFFF;stroke-width:2;stroke-miterlimit:10;" x1="289.855" y1="252.313" x2="326.355" y2="252.313"/>
								
									<line style="fill:none;stroke:#FFFFFF;stroke-width:2;stroke-miterlimit:10;" x1="289.855" y1="282.979" x2="326.355" y2="282.979"/>
								
									<line style="fill:none;stroke:#FFFFFF;stroke-width:2;stroke-miterlimit:10;" x1="295.105" y1="298.313" x2="321.105" y2="298.313"/>
								
									<line style="fill:none;stroke:#FFFFFF;stroke-width:2;stroke-miterlimit:10;" x1="281.855" y1="267.646" x2="334.355" y2="267.646"/>
							</g>
						</g>
						<g>
							<polygon style="fill:#101C42;" points="165.956,319.477 140.019,274.554 165.956,229.629 217.828,229.629 243.767,274.554 
								217.828,319.477 							"/>
							<polygon style="fill:#00BBDD;" points="171.009,310.72 150.13,274.552 171.009,238.386 212.771,238.386 233.656,274.552 
								212.771,310.72 							"/>
							<g>
								
									<line style="fill:none;stroke:#FFFFFF;stroke-width:2;stroke-miterlimit:10;" x1="173.643" y1="253.205" x2="210.143" y2="253.205"/>
								
									<line style="fill:none;stroke:#FFFFFF;stroke-width:2;stroke-miterlimit:10;" x1="173.643" y1="283.872" x2="210.143" y2="283.872"/>
								
									<line style="fill:none;stroke:#FFFFFF;stroke-width:2;stroke-miterlimit:10;" x1="178.893" y1="299.205" x2="204.893" y2="299.205"/>
								
									<line style="fill:none;stroke:#FFFFFF;stroke-width:2;stroke-miterlimit:10;" x1="165.643" y1="268.538" x2="218.143" y2="268.538"/>
							</g>
						</g>
					</g>
				</g>
				<polygon style="fill-rule:evenodd;clip-rule:evenodd;fill:#101C42;" points="248.984,287.511 230.216,319.445 265.717,319.445 
					240.049,314.111 				"/>
			</g>
			<polygon style="fill-rule:evenodd;clip-rule:evenodd;fill:#101C42;" points="152.842,253.721 152.336,205.721 137.336,147.221 
				178.629,161.221 198.854,124.221 226.665,147.721 297.453,108.221 306.555,145.221 367.229,129.721 345.287,176.748 
				376.837,177.221 346.337,215.721 345.993,252.721 333.858,232.221 333.352,213.721 291.386,190.721 314.139,217.721 
				260.542,192.221 289.363,223.221 233.238,201.721 266.103,225.221 201.888,209.721 165.483,209.221 165.989,231.221 			"/>
		</g>
	</g>
</g>
</svg>
